<svg xmlns="http://www.w3.org/2000/svg" width="480" height="480" viewBox="0 0 256 256"><path fill="#fff" stroke-miterlimit="10" d="M387.352 487.896c-11.667 0-25.705-5.901-41.726-17.54l-89.489-65.019-89.49 65.019c-16.02 11.639-30.058 17.54-41.725 17.54-9.359 0-17.317-3.859-22.408-10.867-8.075-11.114-8.276-28.73-.599-52.358l34.505-106.198c-17.619-12.543-62.466-44.546-92.656-66.769-30.432-22.399-32.566-40.055-28.998-50.922 3.46-10.539 15.02-23.102 50.437-23.102h116.964l36.57-112.549c11.017-33.909 26.419-41.026 37.4-41.026 10.98 0 26.383 7.118 37.4 41.027l36.569 112.549H447.07c35.315 0 46.791 12.504 50.199 22.994 3.533 10.876 1.271 28.546-29.582 50.962l-91.865 66.744 34.536 106.291c7.677 23.627 7.475 41.243-.601 52.358-5.091 7.006-13.048 10.865-22.405 10.866zm-131.215-110.51c2.578 0 5.157.796 7.348 2.387l96.837 70.356c15.858 11.522 24.186 12.766 27.029 12.766 1.773 0 2.069-.408 2.182-.562 1.619-2.229 3.088-11.356-2.95-29.938L349.24 317.468a12.5 12.5 0 0 1 4.54-13.976l99.212-72.082c18.14-13.179 20.809-21.635 20.498-23.022-.525-1.111-6.905-5.708-26.42-5.708H321.024a12.502 12.502 0 0 1-11.889-8.637L269.761 72.856c-5.956-18.33-12.12-23.307-13.624-23.738-1.505.431-7.669 5.409-13.624 23.738l-39.377 121.187a12.5 12.5 0 0 1-11.888 8.637H65.202c-20.445 0-26.365 4.93-26.685 5.901-.357 1.089 1.692 9.465 20.066 22.989 37.925 27.915 99.182 71.406 99.796 71.842a12.5 12.5 0 0 1 4.653 14.056L125.69 432.396c-6.039 18.584-4.571 27.709-2.952 29.938.111.153.407.561 2.183.561 2.844 0 11.172-1.244 27.029-12.766l96.838-70.356a12.496 12.496 0 0 1 7.349-2.387z" font-family="none" font-size="none" font-weight="none" style="mix-blend-mode:normal" text-anchor="none" transform="matrix(.5 0 0 .5 0 0)"/></svg>